HIERARCHY
ROOT Hips
{
	OFFSET 0.00 86.18 0.00
	CHANNELS 6 Xposition Yposition Zposition Yrotation Xrotation Zrotation
	JOINT RightUpLeg
	{
		OFFSET -9.25 0.00 0.00
		CHANNELS 6 Xposition Yposition Zposition Yrotation Xrotation Zrotation
		JOINT RightLeg
		{
			OFFSET 0.00 -42.00 0.00
			CHANNELS 6 Xposition Yposition Zposition Yrotation Xrotation Zrotation
			JOINT RightFoot
			{
				OFFSET 0.00 -42.00 0.00
				CHANNELS 6 Xposition Yposition Zposition Yrotation Xrotation Zrotation
				End Site
				{
					OFFSET 0 -1.14 11.36
				}
			}
		}
	}
	JOINT LeftUpLeg
	{
		OFFSET 9.25 0.00 0.00
		CHANNELS 6 Xposition Yposition Zposition Yrotation Xrotation Zrotation
		JOINT LeftLeg
		{
			OFFSET 0.00 -42.00 0.00
			CHANNELS 6 Xposition Yposition Zposition Yrotation Xrotation Zrotation
			JOINT LeftFoot
			{
				OFFSET 0.00 -42.00 0.00
				CHANNELS 6 Xposition Yposition Zposition Yrotation Xrotation Zrotation
				End Site
				{
					OFFSET 0 -1.14 11.36
				}
			}
		}
	}
	JOINT Spine
	{
		OFFSET 0.00 10.46 0.00
		CHANNELS 6 Xposition Yposition Zposition Yrotation Xrotation Zrotation
		JOINT Spine1
		{
			OFFSET 0.00 9.75 0.00
			CHANNELS 6 Xposition Yposition Zposition Yrotation Xrotation Zrotation
			JOINT Spine2
			{
				OFFSET 0.00 10.15 0.00
				CHANNELS 6 Xposition Yposition Zposition Yrotation Xrotation Zrotation
				JOINT Spine3
				{
					OFFSET 0.00 9.75 0.00
					CHANNELS 6 Xposition Yposition Zposition Yrotation Xrotation Zrotation
			 		JOINT Neck
					{
						OFFSET 0.00 10.42 0.00
						CHANNELS 6 Xposition Yposition Zposition Yrotation Xrotation Zrotation
						JOINT Head
						{
							OFFSET 0.00 9.50 0.00
							CHANNELS 6 Xposition Yposition Zposition Yrotation Xrotation Zrotation
							End Site
							{
								OFFSET 0 16.00 0
							}
						}    
					} 
					JOINT RightShoulder
	 					{
						OFFSET -3.20 6.94 0.00
						CHANNELS 6 Xposition Yposition Zposition Yrotation Xrotation Zrotation
						JOINT RightArm
						{
							OFFSET -16.00 0.00 0.00
							CHANNELS 6 Xposition Yposition Zposition Yrotation Xrotation Zrotation
							JOINT RightForeArm
							{
								OFFSET -26.50 0.00 0.00
								CHANNELS 6 Xposition Yposition Zposition Yrotation Xrotation Zrotation
								JOINT RightHand
								{
									OFFSET -26.00 0.00 0.00
									CHANNELS 6 Xposition Yposition Zposition Yrotation Xrotation Zrotation
									End Site
									{
										OFFSET -17.50 0 0
									}
								}
							}
						}	
					}
					JOINT LeftShoulder
					{
						OFFSET 3.20 6.94 0.00
						CHANNELS 6 Xposition Yposition Zposition Yrotation Xrotation Zrotation
						JOINT LeftArm
						{
							OFFSET 16.00 0.00 0.00
							CHANNELS 6 Xposition Yposition Zposition Yrotation Xrotation Zrotation
							JOINT LeftForeArm
							{
								OFFSET 26.50 0.00 0.00
								CHANNELS 6 Xposition Yposition Zposition Yrotation Xrotation Zrotation
								JOINT LeftHand
								{
									OFFSET 26.00 0.00 0.00
									CHANNELS 6 Xposition Yposition Zposition Yrotation Xrotation Zrotation
									End Site
									{
										OFFSET 17.50 0 0
									}
								}
							}
						}
					}     			
				}
			}
		} 
	} 
}
MOTION
Frames: 11
Frame Time: 0.010
342.38 56.30 -50.67 -94.73 28.65 -1.30 -9.02 0.17 0.21 41.94 -57.68 -81.42 0.12 -42.14 0.06 162.69 72.87 -165.47 -0.04 -41.57 -0.22 -4.43 -21.56 -2.52 9.51 0.26 0.10 -12.98 -2.49 18.57 -0.03 -41.91 -0.01 10.74 53.14 20.41 -0.10 -41.88 0.00 -20.72 -58.21 -18.57 0.47 10.54 0.09 -14.16 44.92 6.30 0.65 9.93 0.19 -3.54 10.86 2.55 0.05 10.15 -0.00 -5.43 14.66 3.19 0.33 9.73 -0.05 0.54 -1.77 0.52 1.04 10.42 -0.20 0.62 -2.49 0.64 0.80 9.35 -0.21 1.82 -35.57 9.87 -2.84 7.07 0.01 7.72 -0.30 -17.89 -15.96 0.15 0.09 33.49 -15.35 -7.57 -26.42 -0.15 -0.05 36.39 25.05 -16.41 -25.88 -0.07 -0.08 -16.64 24.20 -51.47 3.49 7.03 -0.07 -15.62 7.23 23.13 15.89 0.10 -0.06 -35.70 -29.53 22.16 26.46 0.07 0.15 -36.25 -9.42 25.66 26.00 -0.07 0.10 -18.34 -1.82 28.41 
338.64 55.67 -52.82 -96.06 29.09 -1.85 -8.90 0.56 0.20 47.30 -58.43 -87.66 -0.04 -42.17 0.34 161.63 77.82 -165.42 0.02 -41.69 -0.21 -6.65 -20.42 -1.03 9.55 0.23 0.17 -13.13 1.37 17.86 -0.01 -41.92 0.00 11.58 49.85 21.63 -0.18 -42.02 -0.02 -24.11 -51.31 -16.94 0.47 10.53 0.05 -13.76 44.50 6.72 0.60 9.94 0.17 -3.44 10.80 2.61 0.07 10.14 -0.03 -5.22 14.66 3.31 0.31 9.73 -0.08 0.55 -1.78 0.50 0.99 10.42 -0.20 0.64 -2.58 0.63 0.81 9.34 -0.17 2.18 -35.72 9.41 -2.88 7.05 -0.04 7.88 0.34 -19.12 -15.90 0.15 0.10 35.76 -15.05 -10.27 -26.44 -0.16 0.03 31.56 21.85 -17.21 -25.86 -0.12 -0.03 -17.47 25.08 -49.79 3.48 6.92 -0.05 -15.67 8.30 24.54 15.90 -0.06 0.02 -34.65 -31.22 22.09 26.42 0.04 0.12 -34.52 -10.63 24.04 26.02 -0.07 0.10 -18.51 -2.36 29.20 
335.04 54.94 -55.17 -98.21 28.97 -2.58 -9.00 0.46 -0.04 55.74 -60.91 -95.03 -0.10 -42.25 0.25 169.45 80.95 -159.63 0.17 -41.88 -0.15 -8.48 -19.53 0.45 9.62 0.21 0.23 -12.36 5.36 16.52 0.05 -41.92 0.02 11.53 46.58 22.92 -0.35 -42.18 -0.17 -27.40 -43.00 -14.71 0.47 10.54 0.01 -13.08 44.44 6.75 0.58 9.97 0.10 -3.26 10.86 2.56 0.09 10.13 -0.06 -4.93 14.74 3.27 0.32 9.73 -0.11 0.53 -1.80 0.49 0.98 10.42 -0.25 0.65 -2.84 0.64 0.82 9.35 -0.18 1.99 -35.88 9.13 -2.90 7.01 -0.09 7.87 0.74 -20.50 -15.86 0.11 0.11 38.71 -15.77 -12.84 -26.44 -0.11 0.08 27.17 18.49 -16.71 -25.88 -0.14 0.02 -17.44 25.14 -48.57 3.50 6.86 -0.10 -16.27 9.37 25.25 15.90 -0.14 0.06 -33.43 -32.86 22.43 26.41 0.05 0.10 -33.50 -12.06 22.16 26.04 -0.05 0.09 -18.83 -3.12 30.10 
331.57 54.07 -57.63 -100.82 28.45 -3.63 -9.11 0.13 -0.17 64.98 -63.35 -102.30 -0.18 -42.09 -0.01 -178.16 83.86 -149.28 0.09 -42.08 -0.27 -10.36 -18.33 0.69 9.64 0.21 0.23 -11.33 9.41 15.25 0.02 -41.95 0.04 9.62 43.96 23.01 -0.43 -42.25 -0.26 -32.13 -34.08 -9.56 0.39 10.55 -0.02 -12.16 44.73 6.72 0.55 9.99 0.03 -3.01 11.01 2.48 0.11 10.13 -0.08 -4.53 14.91 3.19 0.34 9.73 -0.13 0.52 -1.84 0.46 1.01 10.41 -0.30 0.68 -3.36 0.67 0.84 9.37 -0.18 1.91 -36.19 8.59 -2.91 6.94 -0.10 7.80 0.53 -21.80 -15.87 0.03 0.09 42.68 -17.16 -15.49 -26.45 -0.09 0.05 22.94 15.33 -15.35 -25.93 -0.17 0.04 -16.11 24.30 -47.58 3.53 6.83 -0.16 -16.99 10.37 25.15 15.92 -0.16 0.01 -32.79 -34.18 23.29 26.42 0.08 0.07 -32.57 -13.17 20.88 26.03 -0.05 0.08 -18.92 -4.12 30.48 
328.34 53.11 -59.96 -103.48 27.83 -4.53 -9.03 -0.18 -0.14 71.37 -63.45 -107.00 0.05 -42.11 -0.13 -148.54 84.63 -120.05 0.22 -42.21 -0.21 -10.39 -17.24 1.55 9.64 0.20 0.17 -11.04 13.18 13.57 0.10 -41.99 0.05 7.74 41.96 22.38 -0.18 -42.19 -0.08 -39.51 -25.15 -1.33 0.33 10.56 -0.04 -11.11 45.11 6.69 0.48 10.01 -0.04 -2.73 11.19 2.39 0.11 10.13 -0.08 -4.08 15.10 3.10 0.34 9.73 -0.13 0.51 -1.88 0.42 1.05 10.40 -0.35 0.74 -4.09 0.69 0.85 9.41 -0.18 2.10 -36.58 7.69 -2.89 6.92 -0.09 7.79 -0.18 -22.47 -15.85 0.01 0.11 47.01 -18.84 -18.35 -26.45 -0.06 0.08 19.13 12.66 -13.63 -25.98 -0.20 0.09 -14.25 22.78 -46.67 3.54 6.88 -0.20 -18.23 10.51 24.00 15.94 -0.15 -0.07 -32.41 -33.77 24.53 26.44 0.06 0.03 -31.46 -14.34 20.33 26.00 -0.05 0.09 -18.56 -5.17 30.10 
325.84 53.72 -61.86 -106.16 27.78 -5.32 -9.08 -0.00 -0.21 75.48 -64.44 -108.49 -0.02 -42.09 0.00 -108.85 83.22 -80.98 0.50 -42.38 -0.12 -9.52 -15.68 1.59 9.65 0.18 0.13 -11.45 16.26 11.41 0.01 -42.01 0.01 2.46 40.76 19.70 -0.04 -42.07 0.32 -44.44 -18.12 4.53 0.29 10.57 -0.12 -10.05 45.22 6.84 0.36 10.03 -0.12 -2.45 11.30 2.34 0.07 10.13 -0.08 -3.62 15.24 3.07 0.32 9.73 -0.11 0.52 -1.93 0.37 1.03 10.37 -0.38 0.80 -4.86 0.69 0.85 9.45 -0.18 2.81 -36.97 6.38 -2.89 6.92 -0.06 8.06 -0.91 -22.74 -15.82 0.07 0.13 51.45 -20.23 -21.51 -26.47 0.00 0.14 15.59 10.17 -12.31 -26.00 -0.17 0.04 -12.35 22.10 -45.70 3.49 6.96 -0.19 -19.19 9.78 22.34 15.95 -0.06 -0.12 -32.17 -32.38 25.43 26.45 0.05 0.02 -30.58 -15.41 20.44 25.98 -0.04 0.10 -17.81 -6.16 29.35 
323.52 54.51 -63.50 -108.08 27.80 -6.20 -9.18 0.28 -0.37 77.31 -67.14 -107.98 -0.24 -41.97 0.14 -82.50 80.83 -56.11 0.44 -42.48 -0.31 -7.91 -13.62 1.43 9.62 0.15 0.20 -13.30 19.10 9.15 -0.10 -42.01 0.01 -5.36 40.44 14.90 0.08 -41.87 0.80 -44.56 -12.80 9.01 0.24 10.58 -0.13 -9.15 45.37 7.48 0.26 10.05 -0.17 -2.20 11.41 2.42 0.05 10.13 -0.09 -3.15 15.38 3.24 0.30 9.73 -0.10 0.54 -1.97 0.31 1.03 10.35 -0.34 0.84 -5.44 0.64 0.86 9.44 -0.14 3.80 -37.25 4.98 -2.89 6.91 -0.04 8.71 -1.43 -22.96 -15.82 0.07 0.11 55.90 -20.94 -24.76 -26.49 0.03 0.14 12.05 7.70 -11.59 -26.00 -0.14 0.02 -11.42 21.90 -44.37 3.46 7.02 -0.15 -19.62 8.91 21.16 15.93 0.04 -0.11 -31.72 -31.04 25.46 26.47 0.06 0.05 -29.81 -16.19 20.95 25.97 -0.04 0.09 -17.06 -7.55 28.65 
321.90 56.88 -64.88 -109.97 28.22 -7.26 -9.19 0.37 -0.40 79.45 -69.42 -108.34 -0.35 -41.57 0.12 -69.24 78.92 -43.60 -0.15 -42.32 -0.87 -3.24 -10.01 0.60 9.52 0.14 0.16 -15.80 20.84 6.82 -0.38 -42.01 -0.00 -11.65 40.42 10.39 0.26 -41.46 1.18 -41.63 -8.28 12.88 0.20 10.57 -0.13 -8.20 45.20 8.24 0.19 10.06 -0.17 -1.94 11.44 2.52 0.05 10.14 -0.10 -2.65 15.44 3.45 0.29 9.73 -0.11 0.57 -1.98 0.26 1.04 10.35 -0.31 0.85 -5.63 0.57 0.86 9.43 -0.13 4.93 -37.39 3.63 -2.89 6.90 -0.06 9.92 -1.67 -22.88 -15.84 0.07 0.06 59.57 -20.24 -27.66 -26.51 0.03 0.13 8.72 4.63 -11.63 -25.99 -0.13 0.04 -11.32 21.86 -42.91 3.45 7.00 -0.12 -19.39 8.65 20.92 15.91 0.08 -0.07 -31.41 -30.66 25.07 26.48 0.06 0.06 -28.91 -16.71 21.26 25.98 -0.05 0.07 -16.76 -9.43 28.38 
319.48 57.64 -66.72 -111.90 28.79 -8.36 -9.20 0.49 -0.35 81.39 -71.46 -108.78 -0.38 -41.04 0.16 -65.02 78.12 -40.49 -1.47 -40.98 -1.51 5.27 -2.00 -4.16 9.31 0.07 0.11 -17.93 21.57 4.66 -0.77 -41.90 -0.07 -16.76 40.24 6.36 0.21 -41.21 1.13 -34.76 -6.14 13.24 0.16 10.57 -0.15 -7.24 44.83 8.73 0.14 10.06 -0.16 -1.68 11.40 2.57 0.04 10.13 -0.10 -2.17 15.43 3.57 0.29 9.73 -0.11 0.61 -1.97 0.23 1.09 10.35 -0.30 0.87 -5.48 0.50 0.84 9.42 -0.15 6.07 -37.43 2.58 -2.87 6.92 -0.12 11.41 -1.47 -22.14 -15.87 0.03 0.01 62.84 -19.11 -30.63 -26.53 -0.01 0.12 6.01 1.56 -11.81 -26.01 -0.16 0.08 -11.68 21.44 -41.62 3.49 7.00 -0.15 -19.19 9.36 21.23 15.90 0.08 -0.06 -31.13 -31.10 25.20 26.49 0.05 0.03 -27.57 -17.24 20.80 26.00 -0.05 0.05 -17.16 -11.29 28.72 
317.11 58.16 -68.61 -113.57 29.45 -9.08 -9.32 0.10 -0.32 90.17 -73.31 -116.36 -0.18 -41.78 -0.04 -35.84 87.07 -15.28 -0.47 -41.16 -1.03 -5.43 -8.27 1.59 9.22 -0.00 0.15 -19.08 21.45 2.47 -1.01 -41.77 -0.04 -18.50 40.34 4.45 0.15 -41.23 0.89 -27.68 -6.72 12.03 0.14 10.56 -0.20 -6.54 44.43 9.08 0.08 10.04 -0.18 -1.49 11.34 2.60 0.04 10.14 -0.09 -1.82 15.40 3.67 0.30 9.74 -0.10 0.63 -1.99 0.23 1.13 10.35 -0.28 0.93 -5.91 0.53 0.84 9.41 -0.11 6.40 -37.51 2.43 -2.84 6.96 -0.16 12.64 -0.92 -21.29 -15.92 0.01 -0.03 66.31 -18.36 -33.61 -26.55 -0.04 0.06 4.33 -0.95 -12.06 -26.06 -0.19 0.14 -12.01 19.94 -40.70 3.53 6.95 -0.14 -18.52 10.13 22.13 15.92 -0.01 -0.01 -31.59 -32.46 25.50 26.47 0.02 0.01 -25.68 -17.68 19.38 26.02 -0.04 0.04 -17.88 -12.44 29.35 
313.97 57.25 -71.04 -114.71 29.62 -9.29 -9.48 0.46 -0.41 88.77 -73.97 -113.69 0.02 -43.60 0.04 -144.49 80.40 -126.40 -0.33 -41.33 0.71 2.23 -18.95 7.26 9.03 -0.14 0.23 -19.32 21.07 0.76 -1.05 -41.79 0.17 -15.80 41.03 5.16 0.08 -41.49 0.76 -24.85 -8.93 12.02 0.16 10.59 -0.22 -6.24 44.53 9.30 0.01 10.07 -0.27 -1.41 11.40 2.63 0.03 10.13 -0.11 -1.67 15.46 3.72 0.31 9.74 -0.10 0.34 -2.16 0.24 1.16 10.36 -0.24 1.36 -6.48 0.58 0.83 9.39 -0.06 6.90 -37.63 2.20 -2.82 6.98 -0.15 13.57 -0.33 -20.93 -15.93 0.03 -0.07 70.12 -18.78 -35.97 -26.54 0.03 0.03 4.11 -2.79 -12.44 -26.12 -0.20 0.19 -11.95 17.59 -40.18 3.53 6.98 -0.12 -17.70 10.36 22.42 15.94 0.00 -0.01 -32.49 -33.32 26.02 26.45 0.01 -0.02 -23.52 -17.73 17.91 26.02 -0.03 0.03 -18.02 -12.44 29.55 
